<?xml version="1.0" encoding="UTF-8"?>
<svg width="160px" height="59px" viewBox="0 0 160 59" version="1.1" xmlns="http://www.w3.org/2000/svg" xmlns:xlink="http://www.w3.org/1999/xlink">
    <title>escuela-conductores-logo_color</title>
    <g id="-🖥-Escritorio" stroke="none" stroke-width="1" fill="none" fill-rule="evenodd">
        <g id="01-1-EscuelaConductores-Cursos-y-permisos-Listado-todos" transform="translate(-880.000000, -64.000000)">
            <g id="Group" transform="translate(880.000000, 64.000000)">
                <g id="ico/logos/escuela-conductores-logo_color" transform="translate(0.000000, -0.000000)">
                    <g id="texto" transform="translate(0.000000, -0.000000)" fill="#282833">
                        <path d="M16.9118564,48.6651723 L16.9118564,47.3950116 C16.9118564,40.5718347 19.7915869,37.041278 23.6703006,37.041278 C25.0314369,37.041278 25.6700163,37.1602462 26.6305097,37.5976294 L26.6305097,42.3965972 C25.8309733,41.9224738 25.1101659,41.6040589 24.2703903,41.6040589 C22.7902857,41.6040589 21.7108241,43.1104064 21.7108241,47.3162827 L21.7108241,48.7439012 C21.7108241,52.869299 22.7902857,54.4578745 24.3491192,54.4578745 C25.0314369,54.4578745 25.8712125,54.0607306 26.6689994,53.5446185 L26.6689994,58.1458891 C25.5895378,58.7407302 24.7900014,59.0189059 23.5495828,59.0189059 C19.551901,59.0189059 16.9118564,55.4865997 16.9118564,48.6651723" id="Fill-1"/>
                        <path d="M36.506096,48.7439012 L36.506096,47.3180322 C36.506096,43.1104064 35.7870382,41.206915 34.5868588,41.206915 C33.3866795,41.206915 32.6676216,43.1104064 32.6676216,47.3180322 L32.6676216,48.7439012 C32.6676216,52.869299 33.3866795,54.8532689 34.5868588,54.8532689 C35.7870382,54.8532689 36.506096,52.869299 36.506096,48.7439012 M27.9473828,48.6651723 L27.9473828,47.3950116 C27.9473828,40.5718347 30.7466349,37.0430276 34.5868588,37.0430276 C38.4270828,37.0430276 41.2263348,40.5718347 41.2263348,47.3950116 L41.2263348,48.6651723 C41.2263348,55.4865997 38.4270828,59.0189059 34.5868588,59.0189059 C30.7466349,59.0189059 27.9473828,55.4865997 27.9473828,48.6651723" id="Fill-4"/>
                        <path d="M43.4650367,37.3598679 L48.183526,37.3598679 L48.183526,39.8984396 C49.0233016,38.2713744 50.1027632,36.9609745 51.9835107,36.9609745 C54.7022842,36.9609745 56.1019103,39.2633593 56.1019103,42.5157403 L56.1019103,58.621937 L51.3816715,58.621937 L51.3816715,43.5882038 C51.3816715,42.041617 50.7833313,41.1668507 49.822838,41.1668507 C48.8640941,41.1668507 48.183526,42.041617 48.183526,43.5882038 L48.183526,58.621937 L43.4650367,58.621937 L43.4650367,37.3598679 Z" id="Fill-7"/>
                        <path d="M66.6582398,48.7045368 L66.6582398,47.2769182 C66.6582398,43.5066756 65.9794211,41.4457262 64.7792418,41.4457262 C63.5790625,41.4457262 63.0192121,43.5066756 63.0192121,47.2769182 L63.0192121,48.7045368 C63.0192121,52.5132691 63.5790625,54.5357287 64.7792418,54.5357287 C65.9794211,54.5357287 66.6582398,52.5132691 66.6582398,48.7045368 M58.3007228,48.9424732 L58.3007228,47.0389818 C58.3007228,39.4617563 60.3004385,36.9616743 62.8600046,36.9616743 C64.9401988,36.9616743 65.8989426,38.6692181 66.6180005,39.9376292 L66.6180005,30.6546095 L71.3382393,30.6546095 L71.3382393,58.6208872 L66.6180005,58.6208872 L66.6180005,55.9633473 C65.9391819,57.2335079 64.9401988,59.0197807 62.8600046,59.0197807 C60.3004385,59.0197807 58.3007228,56.6001771 58.3007228,48.9424732" id="Fill-9"/>
                        <path d="M73.8561666,53.46449 L73.8561666,37.3600429 L78.5746558,37.3600429 L78.5746558,52.393776 C78.5746558,53.9403628 79.1747455,54.8133796 80.1334893,54.8133796 C81.0939827,54.8133796 81.7728013,53.9403628 81.7728013,52.393776 L81.7728013,37.3600429 L86.4930401,37.3600429 L86.4930401,58.6221119 L81.7728013,58.6221119 L81.7728013,56.0835402 C80.9347752,57.7088559 79.8553137,59.0192558 77.9745662,59.0192558 C75.2557926,59.0192558 73.8561666,56.716871 73.8561666,53.46449" id="Fill-12"/>
                        <path d="M88.7324418,48.6651723 L88.7324418,47.3950116 C88.7324418,40.5718347 91.6121724,37.041278 95.4891365,37.041278 C96.8520224,37.041278 97.4906017,37.1602462 98.4510951,37.5976294 L98.4510951,42.3965972 C97.6515587,41.9224738 96.9307513,41.6040589 96.0892262,41.6040589 C94.6108712,41.6040589 93.52966,43.1104064 93.52966,47.3162827 L93.52966,48.7439012 C93.52966,52.869299 94.6108712,54.4578745 96.1697047,54.4578745 C96.8520224,54.4578745 97.6900484,54.0607306 98.4895848,53.5446185 L98.4895848,58.1458891 C97.4101232,58.7407302 96.6105869,59.0189059 95.3701683,59.0189059 C91.3724864,59.0189059 88.7324418,55.4865997 88.7324418,48.6651723" id="Fill-15"/>
                        <path d="M100.932982,54.9713623 L100.932982,41.1675505 L99.6558232,41.1675505 L99.6558232,37.3588182 L100.932982,37.3588182 L100.932982,31.9247701 L105.651471,31.9247701 L105.651471,37.3588182 L108.172548,37.3588182 L108.172548,41.1675505 L105.651471,41.1675505 L105.651471,53.3862859 C105.651471,54.3380316 106.132593,54.6949362 106.972368,54.6949362 C107.331022,54.6949362 107.731665,54.6162072 108.130559,54.4569998 L108.130559,58.1852536 C107.411501,58.580648 106.2918,58.8990629 105.333056,58.8990629 C103.091905,58.8990629 100.932982,58.1852536 100.932982,54.9713623" id="Fill-18"/>
                        <path d="M117.888402,48.7439012 L117.888402,47.3180322 C117.888402,43.1104064 117.169344,41.206915 115.967415,41.206915 C114.768985,41.206915 114.049927,43.1104064 114.049927,47.3180322 L114.049927,48.7439012 C114.049927,52.869299 114.768985,54.8532689 115.967415,54.8532689 C117.169344,54.8532689 117.888402,52.869299 117.888402,48.7439012 M109.329688,48.6651723 L109.329688,47.3950116 C109.329688,40.5718347 112.128941,37.0430276 115.967415,37.0430276 C119.809388,37.0430276 122.606891,40.5718347 122.606891,47.3950116 L122.606891,48.6651723 C122.606891,55.4865997 119.809388,59.0189059 115.967415,59.0189059 C112.128941,59.0189059 109.329688,55.4865997 109.329688,48.6651723" id="Fill-20"/>
                        <path d="M124.845593,37.3598679 L129.565832,37.3598679 L129.565832,40.0174078 C130.204411,38.1926454 131.205144,37.0029633 133.005413,37.120182 L133.005413,42.7536768 L132.924934,42.7536768 C130.685532,42.7536768 129.565832,44.2600243 129.565832,47.2762184 L129.565832,58.621937 L124.845593,58.621937 L124.845593,37.3598679 Z" id="Fill-23"/>
                        <path d="M142.081113,46.4835052 C142.081113,42.9127093 141.561502,41.206915 140.441801,41.206915 C139.362339,41.206915 138.68352,42.7150121 138.603042,46.4835052 L142.081113,46.4835052 Z M133.923042,48.5462041 L133.923042,47.5139799 C133.923042,40.6908029 136.881502,37.0430276 140.441801,37.0430276 C144.161307,37.0430276 146.519677,40.7310422 146.519677,47.711677 L146.519677,50.1715198 L138.641532,50.1715198 C138.921457,53.5043793 140.322832,54.6555717 141.881666,54.6555717 C143.321531,54.6555717 144.240036,54.0589811 145.639662,53.1072354 L146.000066,57.3918406 C144.362503,58.4643041 143.080096,59.0189059 141.281576,59.0189059 C137.282145,59.0189059 133.923042,55.4096202 133.923042,48.5462041 L133.923042,48.5462041 Z" id="Fill-25"/>
                        <path d="M147.799635,58.0262211 L147.799635,53.4249505 C149.398708,54.2594775 150.679365,54.7738401 151.839305,54.7738401 C152.838289,54.7738401 153.559096,54.1387598 153.559096,53.1852646 L153.559096,53.1065356 C153.559096,52.1950291 153.198692,51.5616984 151.158737,49.5777285 C148.999814,47.4747903 147.559949,45.5712989 147.559949,42.8735197 L147.559949,42.7930412 C147.559949,39.2624846 150.000547,37.0423278 153.639574,37.0423278 C154.958722,37.0423278 155.957705,37.1997857 157.157884,37.5969296 L157.157884,42.1982002 C156.118662,41.6435984 154.997212,41.2866937 153.91775,41.2866937 C152.838289,41.2866937 152.15772,41.8815348 152.15772,42.6758226 L152.15772,42.7545515 C152.15772,43.5470898 152.518124,44.1034411 154.717286,46.2448689 C157.357331,48.7834407 158.156867,50.4892349 158.156867,52.9088384 L158.156867,52.9875674 C158.156867,56.6773315 155.558812,59.0182061 152.15772,59.0182061 C150.758094,59.0182061 149.159022,58.6210622 147.799635,58.0262211" id="Fill-28"/>
                        <polygon id="Fill-30" points="4.35207426e-14 0.197697178 10.7176364 0.197697178 10.7176364 4.80071731 4.87944627 4.80071731 4.87944627 11.7026232 10.0370682 11.7026232 10.0370682 16.3038938 4.87944627 16.3038938 4.87944627 23.3650072 10.8383541 23.3650072 10.8383541 27.9662778 4.35207426e-14 27.9662778"/>
                        <path d="M13.2359135,27.3717866 L13.2359135,22.770516 C14.8349863,23.6032935 16.1156441,24.1194056 17.2755842,24.1194056 C18.2745673,24.1194056 18.9953747,23.4843253 18.9953747,22.53083 L18.9953747,22.4521011 C18.9953747,21.5405946 18.634971,20.9055143 16.595016,18.9215444 C14.4360929,16.8203558 12.9962276,14.9151149 12.9962276,12.2173357 L12.9962276,12.1386067 C12.9962276,8.60805004 15.4350759,6.3861437 19.0741036,6.3861437 C20.3932512,6.3861437 21.3957333,6.54535116 22.5941631,6.94074552 L22.5941631,11.5437657 C21.5549408,10.9891638 20.4334904,10.6322592 19.3557784,10.6322592 C18.2745673,10.6322592 17.5939991,11.2253507 17.5939991,12.0196385 L17.5939991,12.0983675 C17.5939991,12.8926552 17.9544028,13.4490066 20.1553148,15.5904344 C22.7936098,18.1290062 23.5931462,19.8348004 23.5931462,22.2544039 L23.5931462,22.3331329 C23.5931462,26.022897 20.9933408,28.362022 17.5939991,28.362022 C16.1961226,28.362022 14.5953003,27.9666277 13.2359135,27.3717866" id="Fill-32"/>
                        <path d="M24.8333898,18.0100379 L24.8333898,16.7398773 C24.8333898,9.91670038 27.7131204,6.3861437 31.5918341,6.3861437 C32.9512208,6.3861437 33.5915498,6.50511192 34.5502936,6.94074552 L34.5502936,11.7414628 C33.7507572,11.2673395 33.0316993,10.9489246 32.1901742,10.9489246 C30.7118192,10.9489246 29.6306081,12.4552721 29.6306081,16.6611483 L29.6306081,18.0887669 C29.6306081,22.2141647 30.7118192,23.8027402 32.2706527,23.8027402 C32.9512208,23.8027402 33.7909965,23.4038468 34.5905328,22.8894842 L34.5905328,27.4907548 C33.5110713,28.0855959 32.7097854,28.362022 31.4711163,28.362022 C27.4716849,28.362022 24.8333898,24.8332149 24.8333898,18.0100379" id="Fill-34"/>
                        <path d="M37.3500705,22.8100554 L37.3500705,6.70385881 L42.0685598,6.70385881 L42.0685598,21.7393415 C42.0685598,23.2859283 42.6686495,24.158945 43.6273933,24.158945 C44.5878867,24.158945 45.2667053,23.2859283 45.2667053,21.7393415 L45.2667053,6.70385881 L49.9869441,6.70385881 L49.9869441,27.9676774 L45.2667053,27.9676774 L45.2667053,25.4291057 C44.4269297,27.0544214 43.3474681,28.3630717 41.4684701,28.3630717 C38.747947,28.3630717 37.3500705,26.0624364 37.3500705,22.8100554" id="Fill-36"/>
                        <path d="M60.2640482,15.8281959 C60.2640482,12.2574 59.744437,10.5516057 58.6247362,10.5516057 C57.5435251,10.5516057 56.8647065,12.0597028 56.784228,15.8281959 L60.2640482,15.8281959 Z M52.1059779,17.8908948 L52.1059779,16.8586706 C52.1059779,10.0354936 55.0644375,6.38771828 58.6247362,6.38771828 C62.3424929,6.38771828 64.7026123,10.0757329 64.7026123,17.0581173 L64.7026123,19.5162105 L56.8244672,19.5162105 C57.1043924,22.84907 58.505768,24.0002624 60.0646015,24.0002624 C61.5027172,24.0002624 62.4229714,23.4054214 63.8225974,22.4519261 L64.1830011,26.7365313 C62.5436891,27.8089948 61.2630313,28.3635966 59.4645118,28.3635966 C55.4650804,28.3635966 52.1059779,24.754311 52.1059779,17.8908948 L52.1059779,17.8908948 Z" id="Fill-38"/>
                        <polygon id="Fill-40" points="66.6624386 27.9662778 71.3809279 27.9662778 71.3809279 -5.32907052e-15 66.6624386 -5.32907052e-15"/>
                        <path d="M80.8971603,22.3735471 L80.8971603,18.7240222 C80.5385061,18.526325 79.8176987,18.2883886 79.4188053,18.2883886 C78.4583119,18.2883886 77.817983,19.0809268 77.817983,21.1033864 L77.817983,21.6597378 C77.817983,23.7609264 78.4583119,24.3960067 79.2980875,24.3960067 C80.0976239,24.3960067 80.8971603,23.7224367 80.8971603,22.3735471 M73.30069,22.0551321 L73.30069,21.3815621 C73.30069,16.6210841 75.2181776,14.6388637 78.057669,14.6388637 C79.0584016,14.6388637 79.9786557,14.9152898 80.8971603,15.4314019 L80.8971603,14.1612413 C80.8971603,11.9813237 79.8176987,10.8283818 77.8984615,10.8283818 C76.7000317,10.8283818 75.4998524,11.3060042 74.3381628,11.8221163 L74.3381628,7.37830361 C75.7780281,6.7432233 76.9782074,6.46679715 78.8187156,6.46679715 C83.1785507,6.46679715 85.5771599,9.00536888 85.5771599,13.8445759 L85.5771599,27.9667972 L80.8586706,27.9667972 L80.8586706,25.704657 C80.018895,27.4506905 78.8974446,28.3237073 77.3788503,28.3237073 C75.0187309,28.3237073 73.30069,25.944343 73.30069,22.0551321" id="Fill-42"/>
                        <path d="M95.8023028,22.0523329 L95.8023028,21.2003105 C95.8023028,18.9504117 95.3964113,17.7169912 94.6791029,17.7169912 C93.9635441,17.7169912 93.6293834,18.9504117 93.6293834,21.2003105 L93.6293834,22.0523329 C93.6293834,24.3267252 93.9635441,25.5356522 94.6791029,25.5356522 C95.3964113,25.5356522 95.8023028,24.3267252 95.8023028,22.0523329 M90.8108865,22.194045 L90.8108865,21.0585984 C90.8108865,16.5325577 92.0058172,15.0402064 93.5331591,15.0402064 C94.7753272,15.0402064 95.3491739,16.0601839 95.7778094,16.8177315 L95.7778094,11.2734629 L98.5963063,11.2734629 L98.5963063,27.9745006 L95.7778094,27.9745006 L95.7778094,26.3876745 C95.3719178,27.1452221 94.7753272,28.212437 93.5331591,28.212437 C92.0058172,28.212437 90.8108865,26.7655736 90.8108865,22.194045" id="Fill-43"/>
                        <path d="M104.734541,20.7256624 C104.734541,18.5947317 104.423124,17.5747542 103.753053,17.5747542 C103.109226,17.5747542 102.705083,18.4757635 102.656097,20.7256624 L104.734541,20.7256624 Z M99.8638426,21.9573333 L99.8638426,21.3414978 C99.8638426,17.2668365 101.629121,15.0886685 103.753053,15.0886685 C105.97496,15.0886685 107.385083,17.29133 107.385083,21.460466 L107.385083,22.9283238 L102.68059,22.9283238 C102.848545,24.9192919 103.681323,25.6068582 104.613823,25.6068582 C105.474594,25.6068582 106.022197,25.2499535 106.858474,24.683105 L107.073666,27.2409216 C106.093928,27.8795009 105.331132,28.2119121 104.256919,28.2119121 C101.867057,28.2119121 99.8638426,26.0547385 99.8638426,21.9573333 L99.8638426,21.9573333 Z" id="Fill-44"/>
                    </g>
                    <g id="icono" transform="translate(110.459025, 0.490373)" fill="#008A89">
                        <path d="M45.1246303,14.1477906 C44.9339313,14.7706241 44.5840247,15.6733829 44.0154267,16.4361791 C43.9157033,16.5743922 43.8072323,16.7003585 43.7005108,16.8158277 C38.6653561,13.8643663 37.3881974,10.3565535 37.3392105,7.65527527 C37.3287133,7.15490896 37.584145,6.7052791 38.0197786,6.45334641 C38.4659094,6.19616513 38.9627767,6.22065858 39.3441748,6.51283052 C40.8960101,7.70601171 43.0216922,8.82046395 45.6774826,9.84219095 C45.728219,10.5385049 45.7422153,12.1375777 45.1246303,14.1477906 M46.5802414,9.31908072 L46.5802414,9.31383212 C46.5784918,9.30683399 46.5784918,9.29983586 46.5784918,9.29983586 C46.1148657,5.3616381 42.9727053,1.55290575 39.2357038,0.424457254 C39.1237337,0.391216135 39.0135131,0.359724549 38.901543,0.331732029 C38.8683019,0.322984366 38.8315617,0.314236703 38.7983206,0.30548904 C38.7213412,0.286244182 38.6443617,0.268748857 38.5673823,0.253003064 C38.5271431,0.242505869 38.4851543,0.233758206 38.444915,0.225010543 C38.3731842,0.212763815 38.3032029,0.198767555 38.2314721,0.186520827 C38.1877338,0.177773165 38.145745,0.172524567 38.1037562,0.163776904 C38.0302758,0.153279709 37.9567955,0.142782514 37.8850646,0.134034851 C37.8465749,0.127036721 37.8063357,0.121788123 37.7678459,0.116539525 C37.6786198,0.107791863 37.5911432,0.0990441999 37.5036665,0.0920460697 C37.4809226,0.0885470046 37.4564292,0.0867974721 37.4336852,0.083298407 C37.3217151,0.0763002768 37.2132441,0.0710516792 37.0995245,0.0658030815 C37.0697825,0.0658030815 37.0400404,0.0658030815 37.0085488,0.064053549 C36.9438161,0.064053549 36.8808329,0.0605544839 36.8178498,0.0605544839 C36.8038535,0.0605544839 36.7881077,0.0623040164 36.775861,0.0623040164 C36.6813862,0.0623040164 36.5851619,0.0658030815 36.4924367,0.0693021466 C36.4574461,0.0710516792 36.4207059,0.0710516792 36.3857152,0.0728012117 C36.2562498,0.0797993419 36.1250349,0.0885470046 35.9955695,0.102543265 C35.9693265,0.10604233 35.941334,0.111290928 35.915091,0.11304046 C35.8118686,0.125287188 35.7086461,0.137533916 35.6071732,0.153279709 C35.5599359,0.158528307 35.514448,0.167275969 35.4672106,0.176023632 C35.3849826,0.18827036 35.3010051,0.204016153 35.2170275,0.221511478 C35.166291,0.230259141 35.1138051,0.242505869 35.0630686,0.253003064 C34.9843397,0.270498389 34.9038612,0.289743248 34.8251322,0.308988106 C34.7726462,0.322984366 34.7219098,0.333481561 34.6676743,0.349227354 C34.5906948,0.370221745 34.5102163,0.392965668 34.4297378,0.417459123 C34.3790014,0.431455384 34.3300145,0.445451644 34.2810276,0.461197437 C34.193551,0.489189958 34.1060743,0.518932011 34.0185977,0.550423597 C33.9766089,0.564419857 33.9346201,0.578416118 33.8926314,0.592412378 C33.766665,0.639649757 33.6389491,0.690386201 33.5112333,0.742872177 C33.5094837,0.742872177 33.5077342,0.742872177 33.5077342,0.742872177 C33.4325043,0.774363763 32.3320483,1.2012497 31.1493643,2.22122718 C31.0863811,2.27371316 31.0216484,2.3296982 30.9604148,2.38568324 C30.836198,2.49940285 30.7102317,2.62187013 30.5842653,2.74783648 C30.5212821,2.81256918 30.4600485,2.87730188 30.3988149,2.94553365 C30.274598,3.07849813 30.1503812,3.22021026 30.031413,3.36892053 C29.6097757,3.8885317 29.2178804,4.49911856 28.9047141,5.20767924 C28.8784711,5.26366428 28.8522281,5.32139885 28.8294842,5.37913343 C28.7420075,5.58907733 28.7560038,5.82526423 28.8592262,6.02471094 C29.6692598,7.56954817 30.2378579,9.24734989 30.5317793,11.0126282 C30.5650204,11.2068263 30.5912634,11.402774 30.6175064,11.5952226 C30.675241,12.0518506 31.1266204,12.3405234 31.5762503,12.2268038 C31.9541493,12.1323291 32.3425455,12.0833421 32.7414389,12.0833421 C33.848893,12.0833421 34.9266051,12.4699888 35.7768779,13.1698019 L42.4425969,18.6458387 C42.4565932,18.6423397 42.4688399,18.6405901 42.4828362,18.6370911 C42.5073296,18.6318425 42.5335726,18.6265939 42.5580661,18.6178462 C42.633296,18.5986013 42.7050268,18.5758574 42.7767576,18.551364 C42.7890044,18.5461154 42.8012511,18.5426163 42.8117483,18.5391172 C42.9867015,18.4778836 43.1511576,18.4026537 43.3103651,18.3169266 C43.3156136,18.3134275 43.3208622,18.311678 43.3278604,18.3064294 C43.3995912,18.2679397 43.4695725,18.2277004 43.5378043,18.1839621 C43.5483015,18.176964 43.5570491,18.1717154 43.5640473,18.1647173 C43.632279,18.1227285 43.6987613,18.0772407 43.7617444,18.0300033 C43.7687426,18.0247547 43.7739912,18.0212556 43.7792398,18.016007 C45.1473742,16.9995286 45.7982003,15.1957605 46.0361368,14.4224672 C46.8986563,11.6127179 46.6169816,9.53427322 46.5802414,9.31908072" id="Fill-45"/>
                        <path d="M9.45061195,23.308168 C12.8587014,18.7331404 18.7091382,17.2530359 22.6070967,20.026045 C19.5769063,24.2161754 13.9819013,25.4915846 9.45061195,23.308168 M5.48442167,7.84579936 C9.38412972,10.6188085 9.84950538,16.5917126 6.57263092,21.2629645 C3.03682564,17.7044153 2.4542313,12.0376793 5.48442167,7.84579936 M13.0266565,15.3495445 C12.2358678,14.786195 12.0539164,13.7014848 12.6207649,12.9211933 C13.1876135,12.1356532 14.2828208,11.9572008 15.0736096,12.5188008 C15.8591497,13.0804007 16.0393515,14.1651109 15.472503,14.950651 C14.907404,15.7309426 13.8139461,15.9093949 13.0266565,15.3495445 M20.1892427,5.44194164 C23.9017508,8.08373579 25.3223712,12.6920045 24.12919,16.8226509 L8.05623451,5.38945567 C11.6200323,2.94185964 16.4714861,2.79839797 20.1892427,5.44194164 M22.2361958,2.61294752 C15.929131,-1.87285393 7.15522525,-0.439986778 2.63268362,5.81459208 C-1.88635895,12.0656719 -0.44474413,20.7748449 5.86057117,25.2606463 C12.1623874,29.7446983 20.9432913,28.308332 25.4623338,22.0590018 C29.9848755,15.8026734 28.5362625,7.0952499 22.2361958,2.61294752" id="Fill-46"/>
                        <path d="M31.9998121,27.2171486 L34.6818455,24.0067564 C35.6878267,22.8013284 37.4898452,22.6316238 38.7040208,23.6306069 L43.1880727,27.3168719 C43.3245363,27.428842 43.4959905,27.4900757 43.6744428,27.4900757 L49.1592273,27.4900757 C49.5161319,27.4900757 49.6770889,27.0474439 49.4006628,26.8217542 L34.5628773,14.6257628 C33.5044101,13.7562452 32.0050607,13.7702414 30.971087,14.5837741 C30.8083804,14.7114899 30.7156552,14.9039385 30.6981599,15.1086338 C30.4532253,18.0688429 29.4087544,20.9188314 27.6172331,23.39442 C26.8736817,24.4231451 26.0216594,25.3521469 25.0804109,26.1709281 C24.5538016,26.6293056 24.8879623,27.4900757 25.5877753,27.4900757 L31.4119692,27.4900757 C31.6394084,27.4900757 31.8546009,27.3903523 31.9998121,27.2171486" id="Fill-47"/>
                    </g>
                </g>
            </g>
        </g>
    </g>
</svg>